<svg id="Capa_1" enable-background="new 0 0 512 512" height="512" viewBox="0 0 512 512" width="512" xmlns="http://www.w3.org/2000/svg"><path d="m497 0h-60c-8.291 0-15 6.709-15 15v166l30 30h30l30-30v-166c0-8.291-6.709-15-15-15z" fill="#fdbf00"/><path d="m422 181v90l30 30h30l30-30v-90z" fill="#76e2f8"/><path d="m512 271v105c0 74.399-60.601 136-135 136h-30c-34.501 0-67-13.9-91-35.801-27.599-24.6-45-60.3-45-100.199 0-8.401 6.599-15 15-15h60c8.401 0 15 6.599 15 15 0 24.899 21.099 45 46 45h30c24.901 0 45-20.101 45-45v-105z" fill="#ffda2d"/><path d="m512 271v105c0 74.399-60.601 136-135 136h-30c-34.501 0-67-13.9-91-35.801v-115.199h30c8.401 0 15 6.599 15 15 0 24.899 21.099 45 46 45h30c24.901 0 45-20.101 45-45v-105z" fill="#fdbf00"/><path d="m262.301 209.5c-4.501 10.199-29.402 61.5-66.301 61.5s-61.8-51.301-66.301-61.5l66.301-58.5z" fill="#766e6e"/><path d="m262.301 209.5c-4.501 10.199-29.402 61.5-66.301 61.5v-120z" fill="#5b5555"/><path d="m301.901 61h-211.802c-49.198 0-90.099 39.899-90.099 89.099v1.8c0 49.2 40.901 89.101 90.099 89.101 34.2 0 64.501-18.9 79.801-49.2 3.3-6.599 9.901-10.8 17.401-10.8h17.399c7.5 0 14.101 4.2 17.401 10.8 15.3 30.3 45.601 49.2 79.801 49.2 49.197 0 90.098-39.901 90.098-90.901 0-49.2-40.901-89.099-90.099-89.099z" fill="#a8ebfa"/><path d="m392 150.099c0 51-40.901 90.901-90.099 90.901-34.2 0-64.501-18.9-79.801-49.2-3.3-6.599-9.901-10.8-17.401-10.8h-8.699v-120h105.901c49.198 0 90.099 39.899 90.099 89.099z" fill="#76e2f8"/><path d="m286 301h-60c-24.901 0-45 20.099-45 45 0 24.899 20.099 45 45 45h60c24.901 0 45-20.101 45-45 0-24.901-20.099-45-45-45z" fill="#a8ebfa"/><path d="m301.901 91h-211.802c-32.699 0-60.099 26.4-60.099 59.099v1.8c0 32.701 27.4 59.101 60.099 59.101 22.5 0 42.902-12.601 53.101-32.701 8.401-16.8 25.201-27.299 44.101-27.299h17.399c18.9 0 35.7 10.499 44.101 27.299 10.198 20.1 30.6 32.701 53.1 32.701 32.699 0 60.099-26.4 60.099-59.101 0-34.499-27.4-60.899-60.099-60.899z" fill="#fff7cc"/><path d="m362 151.899c0 32.701-27.4 59.101-60.099 59.101-22.5 0-42.902-12.601-53.101-32.701-8.401-16.8-25.201-27.299-44.101-27.299h-8.699v-60h105.901c32.699 0 60.099 26.4 60.099 60.899z" fill="#ffe6b3"/><path d="m331 346c0 24.899-20.099 45-45 45h-30v-90h30c24.901 0 45 20.099 45 45z" fill="#76e2f8"/></svg>